<svg width="67" height="67" viewBox="0 0 67 67" fill="none" xmlns="http://www.w3.org/2000/svg">
<circle cx="33.5" cy="33.5" r="31" stroke="url(#paint0_linear_63034_31745)" stroke-width="5"/>
<path d="M27.0742 23.7891V41.4844H30.9707V45H18.373V41.4844H22.6504V28.2129L18.373 31.1133V26.9824L22.9727 23.7891H27.0742ZM41.957 23.4961C46.3223 23.4961 49.5449 26.543 49.5449 30.7031C49.5449 33.0469 48.6367 35.2148 46.8496 37.9102L42.1914 45H37.6504L43.0996 36.709L42.9824 36.6211C42.543 37.1045 41.6494 37.6465 40.2871 37.6465C36.8008 37.6465 34.3398 34.7754 34.3398 30.8789C34.3398 26.6309 37.5625 23.4961 41.957 23.4961ZM41.957 26.8652C39.9062 26.8652 38.4707 28.4473 38.4707 30.7617C38.4707 33.0762 39.9062 34.6875 41.957 34.6875C43.9785 34.6875 45.4141 33.0469 45.4141 30.7617C45.4141 28.4473 43.9785 26.8652 41.957 26.8652Z" fill="white"/>
<defs>
<linearGradient id="paint0_linear_63034_31745" x1="0" y1="0" x2="63.0798" y2="67" gradientUnits="userSpaceOnUse">
<stop stop-color="#FF0000"/>
<stop offset="1" stop-color="#F79729"/>
</linearGradient>
</defs>
</svg>
