<svg width="85" height="32" viewBox="0 0 85 32" fill="none" xmlns="http://www.w3.org/2000/svg">
<path d="M2.00778 16.7434C1.60769 16.9748 1.28369 17.4868 1.28369 17.888C1.28369 18.2868 1.60278 18.7938 2.00042 19.0277L7.85206 22.4148C8.25215 22.6462 8.57615 22.5083 8.57615 22.1071V12.9403L2.01024 16.7409L2.00778 16.7434Z" fill="#B74325"/>
<path d="M17.3708 1.16677L2.00778 10.0603C1.60769 10.2917 1.28369 10.8037 1.28369 11.2049V17.888C1.28369 17.4868 1.60769 16.9748 2.00778 16.7434L8.57369 12.9403L17.3659 7.84985C17.766 7.61846 18.09 7.10647 18.09 6.70523V1.47446C18.09 1.0757 17.7684 0.937849 17.3708 1.16677Z" fill="#F96217"/>
<path d="M25.1074 15.2566C25.5075 15.0252 25.8315 14.5132 25.8315 14.112C25.8315 13.7132 25.5124 13.2061 25.1148 12.9723L19.2632 9.58521C18.8631 9.35383 18.5391 9.49167 18.5391 9.8929V19.0597L25.105 15.2591L25.1074 15.2566Z" fill="#B74325"/>
<path d="M25.1076 15.2566L18.5417 19.0597L9.74948 24.1501C9.34939 24.3815 9.02539 24.8935 9.02539 25.2948V30.528C9.02539 30.9267 9.34694 31.0646 9.74457 30.8357L25.1051 21.9421C25.5052 21.7107 25.8292 21.1987 25.8292 20.7975V14.1144C25.8292 14.5157 25.5052 15.0277 25.1051 15.2591L25.1076 15.2566Z" fill="#F96217"/>
<path d="M15.125 18.4419C15.4539 18.4419 15.7608 18.3459 16.0209 18.1809C16.3449 17.9889 16.5732 17.6862 16.691 17.3465C16.7573 17.1668 16.7917 16.9723 16.7917 16.7705C16.7917 16.4775 16.7156 16.1994 16.583 15.9606C16.2271 15.2492 15.4613 14.656 14.7716 13.9495C13.9444 13.1028 13.5615 12.3643 13.5615 12.3643C13.5615 12.3643 13.1786 13.1028 12.3514 13.9495C11.6617 14.656 10.8958 15.2492 10.5399 15.9606C10.4074 16.2019 10.3313 16.4775 10.3313 16.7705C10.3313 16.9723 10.3681 17.1668 10.4319 17.3465C10.5498 17.6886 10.778 17.9889 11.102 18.1809C11.3598 18.3459 11.6666 18.4419 11.9979 18.4419C12.5527 18.4419 13.0436 18.1711 13.3479 17.7526C13.2473 18.9169 12.56 19.6135 12.56 19.6135H14.5605C14.5605 19.6135 13.8757 18.9219 13.7726 17.76C13.7726 17.76 13.7726 17.7551 13.7726 17.7526C14.0769 18.1711 14.5678 18.4443 15.1226 18.4443L15.125 18.4419Z" fill="#F96217"/>
<path d="M48.3799 18.4302C48.38 19.4776 48.6516 20.2498 49.1943 20.7476C49.7371 21.2453 50.4758 21.4956 51.4736 21.4956C52.4715 21.4956 53.2441 21.2453 53.791 20.7476C54.3356 20.2498 54.6093 19.4775 54.6094 18.4302V13.5806H57.7471V18.4302C57.747 20.2086 57.1814 21.5648 56.0459 22.4937C54.9102 23.4226 53.3713 23.8862 51.4736 23.8862C49.5762 23.8862 48.0628 23.4224 46.9355 22.4937C45.8083 21.5648 45.2442 20.2108 45.2441 18.4302V13.5806H48.3799V18.4302ZM75.1836 18.4302C75.1837 19.4775 75.4555 20.2498 75.998 20.7476C76.5408 21.2453 77.2797 21.4955 78.2773 21.4956C79.2752 21.4956 80.0478 21.2453 80.5947 20.7476C81.1395 20.2498 81.413 19.4776 81.4131 18.4302V13.5806H84.5508V18.4302C84.5507 20.2087 83.9852 21.5648 82.8496 22.4937C81.714 23.4225 80.1749 23.8862 78.2773 23.8862C76.38 23.8862 74.8665 23.4224 73.7393 22.4937C72.612 21.5648 72.0479 20.2108 72.0479 18.4302V13.5806H75.1836V18.4302ZM36.7949 21.271H43.7324V23.6636H33.6699V8.11377H36.7949V21.271ZM63.5996 21.271H70.5371V23.6636H60.4746V8.11377H63.5996V21.271ZM53.3701 10.772C54.3054 8.12683 57.3164 8.60596 57.3164 8.60596C55.8217 8.93087 55.3438 9.98486 55.3438 9.98486C56.7653 10.2758 57.2416 11.6134 57.251 11.6401C55.8731 10.3097 53.3701 10.772 53.3701 10.772ZM80.2275 10.772C81.1628 8.12683 84.1738 8.60596 84.1738 8.60596C82.6791 8.93087 82.2012 9.98486 82.2012 9.98486C83.6224 10.2757 84.0988 11.6127 84.1084 11.6401C82.7305 10.3097 80.2275 10.772 80.2275 10.772ZM47.7979 8.53467C48.5556 8.53471 49.167 9.22847 49.167 10.0845C49.1668 10.9403 48.5534 11.6333 47.7979 11.6333C47.0423 11.6333 46.4289 10.9403 46.4287 10.0845C46.4287 9.22845 47.0421 8.53467 47.7979 8.53467ZM74.6533 8.53467C75.409 8.53467 76.0225 9.22845 76.0225 10.0845C76.0223 10.9403 75.4089 11.6333 74.6533 11.6333C73.8978 11.6332 73.2844 10.9403 73.2842 10.0845C73.2842 9.22848 73.8976 8.53472 74.6533 8.53467Z" fill="white"/>
</svg>
