<svg width="54" height="54" viewBox="0 0 54 54" fill="none" xmlns="http://www.w3.org/2000/svg">
<g clip-path="url(#clip0_62937_31371)">
<circle cx="27" cy="27" r="27" fill="#0C90FF"/>
<path d="M10.486 28.3771C11.0132 28.9043 11.5403 29.0701 12.5805 29.0701L23.986 29.1306C24.0915 29.1306 24.1815 29.1306 24.2271 29.1903C24.2721 29.2353 24.2869 29.326 24.2869 29.4166L24.3319 40.8376C24.3473 41.8771 24.5132 42.4043 25.0403 42.9314C25.7487 43.6546 26.7432 43.5344 27.4812 42.8112C27.8734 42.4191 28.1897 41.7717 28.4757 41.1687L40.0022 16.3088C40.6045 15.0436 40.5293 14.1089 39.9122 13.4911C39.3085 12.8888 38.3745 12.8136 37.1093 13.4159L12.2487 24.9423C11.6457 25.2284 10.9984 25.5447 10.6062 25.9368C9.88303 26.6748 9.76282 27.6546 10.486 28.3778" fill="#F6FFFF"/>
</g>
<defs>
<clipPath id="clip0_62937_31371">
<rect width="54" height="54" fill="white"/>
</clipPath>
</defs>
</svg>
